<?xml version="1.0" encoding="utf-8"?>
<svg xmlns="http://www.w3.org/2000/svg" style="margin: auto; background: rgba(241, 242, 243, 0); display: block; shape-rendering: auto;" width="280" height="250" preserveAspectRatio="xMidYMid">
<style type="text/css">
  text {
    text-anchor: middle; font-size: 44px; opacity: 0;
  }
</style>
<g style="transform-origin: 140px 125px; transform: scale(0.55);">
<g transform="translate(140,125)">
  <g transform="translate(0,0)"><g class="path" style="transform: matrix(1, 0, 0, 1, 0, 14.925); opacity: 0.05; transform-origin: -102.44px -3.84213px; animation: 1.02041s linear 0s 1 normal forwards running float-btt-in-d5459c14-2a43-46c2-895a-333240733107;"><path d="M1.20-54.48L1.20-56L24.72-56L24.72-56Q36.80-56 42.72-52.52L42.72-52.52L42.72-52.52Q48.64-49.04 48.64-40.08L48.64-40.08L48.64-40.08Q48.64-30.16 41.44-26.40L41.44-26.40L41.44-26.40Q34.72-22.96 22.64-22.96L22.64-22.96L22-22.96L22-1.52L32-1.52L32 0L1.20 0L1.20-1.52L6.40-1.52L6.40-54.48L1.20-54.48zM24.16-54.48L22-54.48L22-24.48L23.68-24.48L23.68-24.48Q28.48-24.48 30.32-27.76L30.32-27.76L30.32-27.76Q32.16-31.04 32.16-38.40L32.16-38.40L32.16-42.24L32.16-42.24Q32.16-49.04 30.44-51.76L30.44-51.76L30.44-51.76Q28.72-54.48 24.16-54.48L24.16-54.48" fill="#ea3f34" stroke="none" stroke-width="none" transform="translate(-127.36001586914062,24.15786488850912)" style="fill: rgb(234, 63, 52);"></path></g><g class="path" style="transform: matrix(1, 0, 0, 1, 0, 14.925); opacity: 0.05; transform-origin: -51.8px -5.84213px; animation: 1.02041s linear 0.112245s 1 normal forwards running float-btt-in-d5459c14-2a43-46c2-895a-333240733107;"><path d="M51.52-58.56L51.52-60L70.80-60L70.80-30.72L70.80-30.72Q72.08-34.40 74.72-36.64L74.72-36.64L74.72-36.64Q77.36-38.88 82.72-38.88L82.72-38.88L82.72-38.88Q95.12-38.88 95.12-25.52L95.12-25.52L95.12-1.44L99.60-1.44L99.60 0L76.96 0L76.96-1.44L80.24-1.44L80.24-27.44L80.24-27.44Q80.24-32.24 79.60-33.64L79.60-33.64L79.60-33.64Q78.96-35.04 77.28-35.04L77.28-35.04L77.28-35.04Q74.72-35.04 72.76-31.68L72.76-31.68L72.76-31.68Q70.80-28.32 70.80-23.52L70.80-23.52L70.80-1.44L74.24-1.44L74.24 0L51.52 0L51.52-1.44L55.92-1.44L55.92-58.56L51.52-58.56" fill="#ea3f34" stroke="none" stroke-width="none" transform="translate(-127.36001586914062,24.15786488850912)" style="fill: rgb(242, 152, 44);"></path></g><g class="path" style="transform: matrix(1, 0, 0, 1, 0, 14.925); opacity: 0.05; transform-origin: -5.64001px 5.11786px; animation: 1.02041s linear 0.22449s 1 normal forwards running float-btt-in-d5459c14-2a43-46c2-895a-333240733107;"><path d="M126.64-15.76L126.64-15.76L126.64-22.56L126.64-22.56Q126.64-30.32 125.80-33.88L125.80-33.88L125.80-33.88Q124.96-37.44 121.92-37.44L121.92-37.44L121.92-37.44Q120.16-37.44 119.08-36.44L119.08-36.44L119.08-36.44Q118-35.44 117.52-33.12L117.52-33.12L117.52-33.12Q116.80-29.52 116.80-22.16L116.80-22.16L116.80-15.92L116.80-15.92Q116.80-7.20 117.32-5.44L117.32-5.44L117.32-5.44Q117.84-3.68 118.40-2.56L118.40-2.56L118.40-2.56Q119.28-0.64 121.84-0.64L121.84-0.64L121.84-0.64Q124.96-0.64 125.92-4.24L125.92-4.24L125.92-4.24Q126.64-6.80 126.64-15.76zM121.68 0.80L121.68 0.80Q111.68 0.80 106.56-4.32L106.56-4.32L106.56-4.32Q101.44-9.44 101.44-19L101.44-19L101.44-19Q101.44-28.56 106.92-33.72L106.92-33.72L106.92-33.72Q112.40-38.88 122.32-38.88L122.32-38.88L122.32-38.88Q132.24-38.88 137.12-34.12L137.12-34.12L137.12-34.12Q142-29.36 142-19.60L142-19.60L142-19.60Q142 0.80 121.68 0.80L121.68 0.80" fill="#ea3f34" stroke="none" stroke-width="none" transform="translate(-127.36001586914062,24.15786488850912)" style="fill: rgb(82, 163, 96);"></path></g><g class="path" style="transform: matrix(1, 0, 0, 1, 0, 14.925); opacity: 0.05; transform-origin: 39.2px 14.2379px; animation: 1.02041s linear 0.336735s 1 normal forwards running float-btt-in-d5459c14-2a43-46c2-895a-333240733107;"><path d="M173.44-21.52L173.44-21.52Q173.44-29.76 172.64-32.60L172.64-32.60L172.64-32.60Q171.84-35.44 169.52-35.44L169.52-35.44L169.52-35.44Q167.20-35.44 165.36-32.44L165.36-32.44L165.36-32.44Q163.52-29.44 163.52-24.40L163.52-24.40L163.52-9.76L163.52-9.76Q163.52-6.32 164.88-3.92L164.88-3.92L164.88-3.92Q166.24-1.52 168.88-1.52L168.88-1.52L168.88-1.52Q171.52-1.52 172.48-5.04L172.48-5.04L172.48-5.04Q173.44-8.56 173.44-17.36L173.44-17.36L173.44-21.52zM144.40-38.08L163.36-38.08L163.36-31.76L163.36-31.76Q166.48-38.88 174.40-38.88L174.40-38.88L174.40-38.88Q181.28-38.88 185.08-33.92L185.08-33.92L185.08-33.92Q188.88-28.96 188.88-18.88L188.88-18.88L188.88-18.88Q188.88-8.80 184.76-4L184.76-4L184.76-4Q180.64 0.80 172.40 0.80L172.40 0.80L172.40 0.80Q168.56 0.80 166.64-0.16L166.64-0.16L166.64-0.16Q164.72-1.12 163.52-3.12L163.52-3.12L163.52 17.60L173.84 17.60L173.84 19.04L144.24 19.04L144.24 17.60L148.64 17.60L148.64-36.64L144.40-36.64L144.40-38.08" fill="#ea3f34" stroke="none" stroke-width="none" transform="translate(-127.36001586914062,24.15786488850912)" style="fill: rgb(103, 71, 148);"></path></g><g class="path" style="transform: matrix(1, 0, 0, 1, 0, 14.925); opacity: 0.05; transform-origin: 81px 5.03786px; animation: 1.02041s linear 0.44898s 1 normal forwards running float-btt-in-d5459c14-2a43-46c2-895a-333240733107;"><path d="M194.08 0.80L193.12 0.80L193.12-13.52L194.08-13.52L194.08-13.52Q196.16-6.56 199.68-3.76L199.68-3.76L199.68-3.76Q203.20-0.96 208.48-0.96L208.48-0.96L208.48-0.96Q216.64-0.96 216.64-6.16L216.64-6.16L216.64-6.16Q216.64-8.40 214.64-9.52L214.64-9.52L214.64-9.52Q211.52-11.28 206.64-12.24L206.64-12.24L206.64-12.24Q201.20-13.68 197.52-16.08L197.52-16.08L197.52-16.08Q193.12-18.96 193.12-25.20L193.12-25.20L193.12-25.20Q193.12-31.44 196.96-35.16L196.96-35.16L196.96-35.16Q200.80-38.88 207.20-38.88L207.20-38.88L207.20-38.88Q211.12-38.88 215.28-37.04L215.28-37.04L215.28-37.04Q216.80-36.40 217.60-36.40L217.60-36.40L217.60-36.40Q218.40-36.40 218.96-36.96L218.96-36.96L218.96-36.96Q219.52-37.52 220.32-39.04L220.32-39.04L221.20-39.04L221.20-26.80L220.24-26.80L220.24-26.80Q216.16-37.20 207.60-37.20L207.60-37.20L207.60-37.20Q203.84-37.20 202-35.88L202-35.88L202-35.88Q200.16-34.56 200.16-32.56L200.16-32.56L200.16-32.56Q200.16-31.36 200.72-30.68L200.72-30.68L200.72-30.68Q201.28-30 201.60-29.68L201.60-29.68L201.60-29.68Q201.92-29.36 202.64-29L202.64-29L202.64-29Q203.36-28.64 203.84-28.44L203.84-28.44L203.84-28.44Q204.32-28.24 205.32-27.92L205.32-27.92L205.32-27.92Q206.32-27.60 206.80-27.52L206.80-27.52L206.80-27.52Q212.24-26.16 214.64-25.16L214.64-25.16L214.64-25.16Q217.04-24.16 219.20-22.72L219.20-22.72L219.20-22.72Q223.60-19.68 223.60-12.92L223.60-12.92L223.60-12.92Q223.60-6.16 219.60-2.68L219.60-2.68L219.60-2.68Q215.60 0.80 208.64 0.80L208.64 0.80L208.64 0.80Q203.68 0.80 199.04-1.52L199.04-1.52L199.04-1.52Q198.08-2.16 197.52-2.16L197.52-2.16L197.52-2.16Q195.76-2.16 194.08 0.80L194.08 0.80" fill="#ea3f34" stroke="none" stroke-width="none" transform="translate(-127.36001586914062,24.15786488850912)" style="fill: rgb(8, 8, 8);"></path></g><g class="path" style="transform: matrix(1, 0, 0, 1, 0, 14.925); opacity: 0.05; transform-origin: 113px -1.48214px; animation: 1.02041s linear 0.561224s 1 normal forwards running float-btt-in-d5459c14-2a43-46c2-895a-333240733107;"><path d="M229.20-11.44L229.20-11.44L229.20-36.64L224.80-36.64L224.80-38.08L229.20-38.08L229.20-48.40L244.08-52.08L244.08-38.08L254.48-38.08L254.48-36.64L244.08-36.64L244.08-9.68L244.08-9.68Q244.08-5.92 244.84-4.16L244.84-4.16L244.84-4.16Q245.60-2.40 248.00-2.40L248.00-2.40L248.00-2.40Q250.40-2.40 252.20-4.80L252.20-4.80L252.20-4.80Q254.00-7.20 254.56-11.36L254.56-11.36L255.92-11.20L255.92-11.20Q255.28-5.68 252.40-2.44L252.40-2.44L252.40-2.44Q249.52 0.80 242.88 0.80L242.88 0.80L242.88 0.80Q236.24 0.80 232.72-1.84L232.72-1.84L232.72-1.84Q229.20-4.48 229.20-11.44" fill="#ea3f34" stroke="none" stroke-width="none" transform="translate(-127.36001586914062,24.15786488850912)" style="fill: rgb(234, 63, 52);"></path></g></g>
</g>
</g>
<style id="float-btt-in-d5459c14-2a43-46c2-895a-333240733107" data-anikit="">@keyframes float-btt-in-d5459c14-2a43-46c2-895a-333240733107
{
  0% {
    animation-timing-function: cubic-bezier(0.2242,0.7499,0.3142,0.8148);
    transform: translate(0px,14.925px) rotate(0deg) scale(1,1) skewX(0deg) skewY(0deg);
    opacity: 0.05;
  }
  100% {
    transform: translate(0px,0px) rotate(0deg) scale(1,1) skewX(0deg) skewY(0deg);
    opacity: 1;
  }
}</style></svg>